<svg xmlns="http://www.w3.org/2000/svg" xmlns:xlink="http://www.w3.org/1999/xlink" id="Solid" width="512" height="512" x="0" y="0" enable-background="new 0 0 512 512" version="1.1" viewBox="0 0 512 512" xml:space="preserve"><path fill="#FFF" d="M400,216c-6.367,0.008-12.475-2.521-16.971-7.029L256,81.941l-127.029,127.03	c-9.373,9.373-24.569,9.373-33.942,0c-9.373-9.373-9.373-24.569,0-33.942l144-144c9.373-9.373,24.569-9.373,33.942,0l0,0l144,144	c9.373,9.373,9.373,24.568,0.001,33.941C412.471,213.472,406.365,216,400,216z M272.971,480.971l144-144	c9.373-9.373,9.373-24.568,0-33.941c-9.372-9.372-24.568-9.372-33.94,0L256,430.059L128.971,303.029	c-9.373-9.373-24.569-9.373-33.942,0s-9.373,24.568,0,33.941l144,143.999C248.401,490.344,263.598,490.344,272.971,480.971	C272.971,480.972,272.971,480.972,272.971,480.971z"/></svg>